<svg width="20" height="20" viewBox="0 0 20 20" fill="none" xmlns="http://www.w3.org/2000/svg">
<g clip-path="url(#clip0_1_3469)">
<path d="M16.1921 10.8126C16.2255 10.5459 16.2505 10.2751 16.2505 10.0001C16.2505 9.72508 16.2255 9.45425 16.1921 9.18758L17.9546 7.80841C18.113 7.68341 18.1588 7.45841 18.0546 7.27508L16.388 4.38758C16.2838 4.20841 16.0671 4.13341 15.8796 4.20841L13.8046 5.04591C13.3755 4.71675 12.9046 4.43758 12.3963 4.22508L12.0838 2.01675C12.0463 1.82091 11.8755 1.66675 11.6671 1.66675H8.3338C8.12547 1.66675 7.95463 1.82091 7.9213 2.01675L7.6088 4.22508C7.10047 4.43758 6.62963 4.71258 6.20047 5.04591L4.12547 4.20841C3.93797 4.13758 3.7213 4.20841 3.61713 4.38758L1.95047 7.27508C1.8463 7.45425 1.89213 7.67925 2.05047 7.80841L3.8088 9.18758C3.77547 9.45425 3.75047 9.72508 3.75047 10.0001C3.75047 10.2751 3.77547 10.5459 3.8088 10.8126L2.05047 12.1917C1.89213 12.3167 1.8463 12.5417 1.95047 12.7251L3.61713 15.6126C3.7213 15.7917 3.93797 15.8667 4.12547 15.7917L6.20047 14.9542C6.62963 15.2834 7.10047 15.5626 7.6088 15.7751L7.9213 17.9834C7.95463 18.1792 8.12547 18.3334 8.3338 18.3334H11.6671C11.8755 18.3334 12.0463 18.1792 12.0796 17.9834L12.3921 15.7751C12.9005 15.5626 13.3713 15.2876 13.8005 14.9542L15.8755 15.7917C16.063 15.8626 16.2796 15.7917 16.3838 15.6126L18.0505 12.7251C18.1546 12.5459 18.1088 12.3209 17.9505 12.1917L16.1921 10.8126V10.8126ZM10.0005 12.9167C8.38797 12.9167 7.0838 11.6126 7.0838 10.0001C7.0838 8.38758 8.38797 7.08341 10.0005 7.08341C11.613 7.08341 12.9171 8.38758 12.9171 10.0001C12.9171 11.6126 11.613 12.9167 10.0005 12.9167Z" fill="#E0E0E0"/>
</g>
<defs>
<clipPath id="clip0_1_3469">
<rect width="20" height="20" fill="white"/>
</clipPath>
</defs>
</svg>
