<svg width="20" height="20" viewBox="0 0 20 20" fill="none" xmlns="http://www.w3.org/2000/svg">
<g clip-path="url(#clip0_1_3468)">
<path d="M10.0007 3.75C5.83398 3.75 2.27565 6.34167 0.833984 10C2.27565 13.6583 5.83398 16.25 10.0007 16.25C14.1715 16.25 17.7256 13.6583 19.1673 10C17.7256 6.34167 14.1715 3.75 10.0007 3.75ZM10.0007 14.1667C7.70065 14.1667 5.83398 12.3 5.83398 10C5.83398 7.7 7.70065 5.83333 10.0007 5.83333C12.3006 5.83333 14.1673 7.7 14.1673 10C14.1673 12.3 12.3006 14.1667 10.0007 14.1667ZM10.0007 7.5C8.62148 7.5 7.50065 8.62083 7.50065 10C7.50065 11.3792 8.62148 12.5 10.0007 12.5C11.3798 12.5 12.5006 11.3792 12.5006 10C12.5006 8.62083 11.3798 7.5 10.0007 7.5Z" fill="#E0E0E0"/>
</g>
<defs>
<clipPath id="clip0_1_3468">
<rect width="20" height="20" fill="white"/>
</clipPath>
</defs>
</svg>
