<svg width="26" height="20" viewBox="0 0 26 20" fill="none" xmlns="http://www.w3.org/2000/svg">
<g opacity="0.3">
<path d="M17.9173 15.5834L12.9173 10.5834C12.7507 10.4167 12.6673 10.25 12.6673 10C12.6673 9.75002 12.7507 9.58335 12.9173 9.41669L17.9173 4.41669C18.2507 4.08335 18.7507 4.08335 19.084 4.41669C19.4173 4.75002 19.4173 5.25002 19.084 5.58335L14.6673 10L19.084 14.4167C19.4173 14.75 19.4173 15.25 19.084 15.5834C18.7507 15.9167 18.2507 15.9167 17.9173 15.5834Z" fill="#272557"/>
<mask id="mask0_1_1458" style="mask-type:luminance" maskUnits="userSpaceOnUse" x="12" y="4" width="8" height="12">
<path d="M17.9173 15.5834L12.9173 10.5834C12.7507 10.4167 12.6673 10.25 12.6673 10C12.6673 9.75002 12.7507 9.58335 12.9173 9.41669L17.9173 4.41669C18.2507 4.08335 18.7507 4.08335 19.084 4.41669C19.4173 4.75002 19.4173 5.25002 19.084 5.58335L14.6673 10L19.084 14.4167C19.4173 14.75 19.4173 15.25 19.084 15.5834C18.7507 15.9167 18.2507 15.9167 17.9173 15.5834Z" fill="white"/>
</mask>
<g mask="url(#mask0_1_1458)">
</g>
</g>
<g opacity="0.3">
<path d="M11.9173 15.5834L6.91732 10.5834C6.75065 10.4167 6.66732 10.25 6.66732 10C6.66732 9.75002 6.75065 9.58335 6.91732 9.41669L11.9173 4.41669C12.2507 4.08335 12.7507 4.08335 13.084 4.41669C13.4173 4.75002 13.4173 5.25002 13.084 5.58335L8.66732 10L13.084 14.4167C13.4173 14.75 13.4173 15.25 13.084 15.5834C12.7507 15.9167 12.2507 15.9167 11.9173 15.5834Z" fill="#272557"/>
<mask id="mask1_1_1458" style="mask-type:luminance" maskUnits="userSpaceOnUse" x="6" y="4" width="8" height="12">
<path d="M11.9173 15.5834L6.91732 10.5834C6.75065 10.4167 6.66732 10.25 6.66732 10C6.66732 9.75002 6.75065 9.58335 6.91732 9.41669L11.9173 4.41669C12.2507 4.08335 12.7507 4.08335 13.084 4.41669C13.4173 4.75002 13.4173 5.25002 13.084 5.58335L8.66732 10L13.084 14.4167C13.4173 14.75 13.4173 15.25 13.084 15.5834C12.7507 15.9167 12.2507 15.9167 11.9173 15.5834Z" fill="white"/>
</mask>
<g mask="url(#mask1_1_1458)">
</g>
</g>
</svg>
