<svg width="20" height="20" viewBox="0 0 20 20" fill="none" xmlns="http://www.w3.org/2000/svg">
<g opacity="0.3">
<path d="M4.41536 11.9167L9.41536 6.91671C9.58203 6.75004 9.7487 6.66671 9.9987 6.66671C10.2487 6.66671 10.4154 6.75004 10.582 6.91671L15.582 11.9167C15.9154 12.25 15.9154 12.75 15.582 13.0834C15.2487 13.4167 14.7487 13.4167 14.4154 13.0834L9.9987 8.66671L5.58203 13.0834C5.2487 13.4167 4.7487 13.4167 4.41536 13.0834C4.08203 12.75 4.08203 12.25 4.41536 11.9167Z" fill="#272557"/>
<mask id="mask0_10_1734" style="mask-type:luminance" maskUnits="userSpaceOnUse" x="4" y="6" width="12" height="8">
<path d="M4.41536 11.9167L9.41536 6.91671C9.58203 6.75004 9.7487 6.66671 9.9987 6.66671C10.2487 6.66671 10.4154 6.75004 10.582 6.91671L15.582 11.9167C15.9154 12.25 15.9154 12.75 15.582 13.0834C15.2487 13.4167 14.7487 13.4167 14.4154 13.0834L9.9987 8.66671L5.58203 13.0834C5.2487 13.4167 4.7487 13.4167 4.41536 13.0834C4.08203 12.75 4.08203 12.25 4.41536 11.9167Z" fill="white"/>
</mask>
<g mask="url(#mask0_10_1734)">
</g>
</g>
</svg>
