<svg width="30" height="20" viewBox="0 0 30 20" fill="none" xmlns="http://www.w3.org/2000/svg">
<path d="M29.4815 20H0.517243C0.231611 20 0 19.7643 0 19.4737V0.526577C0 0.235925 0.231611 0.000244141 0.517243 0.000244141H29.4815C29.7671 0.000244141 29.9988 0.235925 29.9988 0.526577V19.4737C29.9987 19.7644 29.7671 20 29.4815 20Z" fill="#F5F5F5"/>
<path d="M29.9987 1.53876H0V0.526577C0 0.235925 0.231611 0.000244141 0.517243 0.000244141H29.4815C29.7671 0.000244141 29.9988 0.235925 29.9988 0.526577L29.9987 1.53876Z" fill="#FF4B55"/>
<path d="M29.9987 6.15393H0V7.69239H29.9987V6.15393Z" fill="#FF4B55"/>
<path d="M29.9987 3.07703H0V4.61548H29.9987V3.07703Z" fill="#FF4B55"/>
<path d="M29.9987 10.7693H0.517243C0.231611 10.7693 0 10.5337 0 10.243V9.23083H29.9987V10.7693Z" fill="#FF4B55"/>
<path d="M29.9987 15.3853H0V16.9237H29.9987V15.3853Z" fill="#FF4B55"/>
<path d="M29.4815 20H0.517243C0.231611 20 0 19.7643 0 19.4737V18.4615H29.9987V19.4737C29.9987 19.7644 29.7671 20 29.4815 20Z" fill="#FF4B55"/>
<path d="M29.9987 12.308H0V13.8464H29.9987V12.308Z" fill="#FF4B55"/>
<path d="M13.4477 0.00012207H0.517243C0.231611 0.00012207 0 0.235744 0 0.526396V10.2428C0 10.5335 0.231611 10.7692 0.517243 10.7692H13.4477C13.7334 10.7692 13.965 10.5335 13.965 10.2428V0.526396C13.9649 0.235744 13.7333 0.00012207 13.4477 0.00012207Z" fill="#41479B"/>
<path d="M1.45327 1.20825L1.56776 1.55763L1.92968 1.56043C1.97655 1.56085 1.99595 1.62166 1.95827 1.64998L1.66713 1.86879L1.77635 2.21989C1.79053 2.26532 1.73961 2.30301 1.70147 2.27522L1.40705 2.06112L1.11263 2.27528C1.07448 2.30301 1.02368 2.26538 1.03775 2.21995L1.14696 1.86885L0.855821 1.65004C0.818147 1.62166 0.83754 1.5609 0.884413 1.56049L1.24633 1.55769L1.36082 1.20831C1.37558 1.163 1.43839 1.163 1.45327 1.20825Z" fill="#F5F5F5"/>
<path d="M1.45327 3.03584L1.56776 3.38522L1.92968 3.38802C1.97655 3.38844 1.99595 3.44925 1.95827 3.47757L1.66713 3.69638L1.77635 4.04749C1.79053 4.09292 1.73961 4.1306 1.70147 4.10281L1.40705 3.88872L1.11263 4.10287C1.07448 4.1306 1.02368 4.09298 1.03775 4.04755L1.14696 3.69644L0.855821 3.47763C0.818147 3.44925 0.83754 3.3885 0.884413 3.38808L1.24633 3.38528L1.36082 3.0359C1.37558 2.99065 1.43839 2.99065 1.45327 3.03584Z" fill="#F5F5F5"/>
<path d="M1.45327 4.86335L1.56776 5.21274L1.92968 5.21554C1.97655 5.21596 1.99595 5.27677 1.95827 5.30509L1.66713 5.5239L1.77635 5.87501C1.79053 5.92044 1.73961 5.95812 1.70147 5.93034L1.40705 5.71624L1.11263 5.9304C1.07448 5.95812 1.02368 5.9205 1.03775 5.87507L1.14696 5.52396L0.855821 5.30515C0.818147 5.27677 0.83754 5.21602 0.884413 5.2156L1.24633 5.2128L1.36082 4.86341C1.37558 4.81816 1.43839 4.81816 1.45327 4.86335Z" fill="#F5F5F5"/>
<path d="M1.45327 6.69104L1.56776 7.04041L1.92968 7.04322C1.97655 7.04363 1.99595 7.10445 1.95827 7.13277L1.66713 7.35158L1.77635 7.70268C1.79053 7.74812 1.73961 7.7858 1.70147 7.75801L1.40705 7.54391L1.11263 7.75807C1.07448 7.7858 1.02368 7.74818 1.03775 7.70274L1.14696 7.35164L0.855821 7.13283C0.818147 7.10445 0.83754 7.04369 0.884413 7.04328L1.24633 7.04047L1.36082 6.6911C1.37558 6.64578 1.43839 6.64578 1.45327 6.69104Z" fill="#F5F5F5"/>
<path d="M1.45327 8.5186L1.56776 8.86798L1.92968 8.87078C1.97655 8.8712 1.99595 8.93201 1.95827 8.96033L1.66713 9.17914L1.77635 9.53025C1.79053 9.57568 1.73961 9.61336 1.70147 9.58558L1.40705 9.37148L1.11263 9.58564C1.07448 9.61336 1.02368 9.57574 1.03775 9.53031L1.14696 9.1792L0.855821 8.96039C0.818147 8.93201 0.83754 8.87126 0.884413 8.87084L1.24633 8.86804L1.36082 8.51866C1.37558 8.47328 1.43839 8.47328 1.45327 8.5186Z" fill="#F5F5F5"/>
<path d="M2.85171 2.10421L2.9662 2.45359L3.32812 2.45639C3.37499 2.4568 3.39438 2.51762 3.35671 2.54594L3.06557 2.76475L3.17478 3.11585C3.18896 3.16129 3.13805 3.19896 3.0999 3.17118L2.80548 2.95702L2.51106 3.17118C2.47292 3.19891 2.42212 3.16129 2.43618 3.11585L2.5454 2.76475L2.25426 2.54594C2.21658 2.51756 2.23598 2.4568 2.28285 2.45639L2.64477 2.45359L2.75926 2.10421C2.77396 2.05901 2.83689 2.05901 2.85171 2.10421Z" fill="#F5F5F5"/>
<path d="M2.85171 3.93189L2.9662 4.28126L3.32812 4.28407C3.37499 4.28448 3.39438 4.3453 3.35671 4.37362L3.06557 4.59242L3.17478 4.94353C3.18896 4.98896 3.13805 5.02664 3.0999 4.99885L2.80548 4.7847L2.51106 4.99885C2.47292 5.02658 2.42212 4.98902 2.43618 4.94353L2.5454 4.59242L2.25426 4.37362C2.21658 4.34524 2.23598 4.28448 2.28285 4.28407L2.64477 4.28126L2.75926 3.93189C2.77396 3.88664 2.83689 3.88664 2.85171 3.93189Z" fill="#F5F5F5"/>
<path d="M2.85171 5.75965L2.9662 6.10902L3.32812 6.11183C3.37499 6.11225 3.39438 6.17306 3.35671 6.20138L3.06557 6.42019L3.17478 6.77129C3.18896 6.81673 3.13805 6.85441 3.0999 6.82662L2.80548 6.61246L2.51106 6.82662C2.47292 6.85435 2.42212 6.81673 2.43618 6.77129L2.5454 6.42019L2.25426 6.20138C2.21658 6.173 2.23598 6.11225 2.28285 6.11183L2.64477 6.10902L2.75926 5.75965C2.77396 5.71439 2.83689 5.71439 2.85171 5.75965Z" fill="#F5F5F5"/>
<path d="M2.85171 7.58724L2.9662 7.93662L3.32812 7.93942C3.37499 7.93984 3.39438 8.00065 3.35671 8.02897L3.06557 8.24778L3.17478 8.59889C3.18896 8.64432 3.13805 8.682 3.0999 8.65421L2.80548 8.44006L2.51106 8.65421C2.47292 8.68194 2.42212 8.64432 2.43618 8.59889L2.5454 8.24778L2.25426 8.02897C2.21658 8.00059 2.23598 7.93984 2.28285 7.93942L2.64477 7.93662L2.75926 7.58724C2.77396 7.54205 2.83689 7.54205 2.85171 7.58724Z" fill="#F5F5F5"/>
<path d="M4.24234 1.20813L4.35683 1.55751L4.71875 1.56031C4.76562 1.56073 4.78501 1.62154 4.74734 1.64986L4.4562 1.86867L4.56541 2.21978C4.57959 2.26521 4.52868 2.30289 4.49053 2.2751L4.19611 2.06095L3.90169 2.2751C3.86355 2.30283 3.81275 2.26521 3.82681 2.21978L3.93602 1.86867L3.64488 1.64986C3.60721 1.62148 3.6266 1.56073 3.67348 1.56031L4.0354 1.55751L4.14988 1.20813C4.16465 1.16288 4.22752 1.16288 4.24234 1.20813Z" fill="#F5F5F5"/>
<path d="M4.24234 3.03573L4.35683 3.3851L4.71875 3.38791C4.76562 3.38832 4.78501 3.44914 4.74734 3.47746L4.4562 3.69626L4.56541 4.04737C4.57959 4.0928 4.52868 4.13048 4.49053 4.1027L4.19611 3.88854L3.90169 4.1027C3.86355 4.13042 3.81275 4.0928 3.82681 4.04737L3.93602 3.69626L3.64488 3.47746C3.60721 3.44908 3.6266 3.38832 3.67348 3.38791L4.0354 3.3851L4.14988 3.03573C4.16465 2.99053 4.22752 2.99053 4.24234 3.03573Z" fill="#F5F5F5"/>
<path d="M4.24234 4.86324L4.35683 5.21262L4.71875 5.21543C4.76562 5.21584 4.78501 5.27666 4.74734 5.30498L4.4562 5.52379L4.56541 5.8749C4.57959 5.92033 4.52868 5.95801 4.49053 5.93023L4.19611 5.71607L3.90169 5.93023C3.86355 5.95795 3.81275 5.92033 3.82681 5.8749L3.93602 5.52379L3.64488 5.30498C3.60721 5.2766 3.6266 5.21584 3.67348 5.21543L4.0354 5.21262L4.14988 4.86324C4.16465 4.81805 4.22752 4.81805 4.24234 4.86324Z" fill="#F5F5F5"/>
<path d="M4.24234 6.69117L4.35683 7.04054L4.71875 7.04335C4.76562 7.04376 4.78501 7.10458 4.74734 7.1329L4.4562 7.35171L4.56541 7.70281C4.57959 7.74824 4.52868 7.78592 4.49053 7.75814L4.19611 7.54398L3.90169 7.75814C3.86355 7.78586 3.81275 7.74824 3.82681 7.70281L3.93602 7.35171L3.64488 7.1329C3.60721 7.10452 3.6266 7.04376 3.67348 7.04335L4.0354 7.04054L4.14988 6.69117C4.16465 6.64591 4.22752 6.64591 4.24234 6.69117Z" fill="#F5F5F5"/>
<path d="M4.24234 8.5186L4.35683 8.86798L4.71875 8.87078C4.76562 8.8712 4.78501 8.93202 4.74734 8.96034L4.4562 9.17915L4.56541 9.53025C4.57959 9.57569 4.52868 9.61337 4.49053 9.58558L4.19611 9.37142L3.90169 9.58558C3.86355 9.61331 3.81275 9.57569 3.82681 9.53025L3.93602 9.17915L3.64488 8.96034C3.60721 8.93196 3.6266 8.8712 3.67348 8.87078L4.0354 8.86798L4.14988 8.5186C4.16465 8.47329 4.22752 8.47329 4.24234 8.5186Z" fill="#F5F5F5"/>
<path d="M5.63687 2.10421L5.75136 2.45359L6.11327 2.45639C6.16015 2.4568 6.17954 2.51762 6.14187 2.54594L5.85073 2.76475L5.95994 3.11585C5.97412 3.16129 5.9232 3.19896 5.88506 3.17118L5.59064 2.95702L5.29622 3.17118C5.25808 3.19891 5.20728 3.16129 5.22134 3.11585L5.33055 2.76475L5.03941 2.54594C5.00174 2.51756 5.02113 2.4568 5.06801 2.45639L5.42993 2.45359L5.54441 2.10421C5.55912 2.05901 5.62205 2.05901 5.63687 2.10421Z" fill="#F5F5F5"/>
<path d="M5.63687 3.93189L5.75136 4.28126L6.11327 4.28407C6.16015 4.28448 6.17954 4.3453 6.14187 4.37362L5.85073 4.59242L5.95994 4.94353C5.97412 4.98896 5.9232 5.02664 5.88506 4.99885L5.59064 4.7847L5.29622 4.99885C5.25808 5.02658 5.20728 4.98902 5.22134 4.94353L5.33055 4.59242L5.03941 4.37362C5.00174 4.34524 5.02113 4.28448 5.06801 4.28407L5.42993 4.28126L5.54441 3.93189C5.55912 3.88664 5.62205 3.88664 5.63687 3.93189Z" fill="#F5F5F5"/>
<path d="M5.63687 5.75965L5.75136 6.10902L6.11327 6.11183C6.16015 6.11225 6.17954 6.17306 6.14187 6.20138L5.85073 6.42019L5.95994 6.77129C5.97412 6.81673 5.9232 6.85441 5.88506 6.82662L5.59064 6.61246L5.29622 6.82662C5.25808 6.85435 5.20728 6.81673 5.22134 6.77129L5.33055 6.42019L5.03941 6.20138C5.00174 6.173 5.02113 6.11225 5.06801 6.11183L5.42993 6.10902L5.54441 5.75965C5.55912 5.71439 5.62205 5.71439 5.63687 5.75965Z" fill="#F5F5F5"/>
<path d="M5.63687 7.58724L5.75136 7.93662L6.11327 7.93942C6.16015 7.93984 6.17954 8.00065 6.14187 8.02897L5.85073 8.24778L5.95994 8.59889C5.97412 8.64432 5.9232 8.682 5.88506 8.65421L5.59064 8.44006L5.29622 8.65421C5.25808 8.68194 5.20728 8.64432 5.22134 8.59889L5.33055 8.24778L5.03941 8.02897C5.00174 8.00059 5.02113 7.93984 5.06801 7.93942L5.42993 7.93662L5.54441 7.58724C5.55912 7.54205 5.62205 7.54205 5.63687 7.58724Z" fill="#F5F5F5"/>
<path d="M7.03146 1.20813L7.14595 1.55751L7.50787 1.56031C7.55474 1.56073 7.57413 1.62154 7.53646 1.64986L7.24532 1.86867L7.35453 2.21978C7.36871 2.26521 7.3178 2.30289 7.27965 2.2751L6.98517 2.06095L6.69075 2.2751C6.65261 2.30283 6.60181 2.26521 6.61587 2.21978L6.72509 1.86867L6.43395 1.64986C6.39627 1.62148 6.41567 1.56073 6.46254 1.56031L6.82446 1.55751L6.93894 1.20813C6.95377 1.16288 7.01664 1.16288 7.03146 1.20813Z" fill="#F5F5F5"/>
<path d="M7.03146 3.03573L7.14595 3.3851L7.50787 3.38791C7.55474 3.38832 7.57413 3.44914 7.53646 3.47746L7.24532 3.69626L7.35453 4.04737C7.36871 4.0928 7.3178 4.13048 7.27965 4.1027L6.98517 3.88854L6.69075 4.1027C6.65261 4.13042 6.60181 4.0928 6.61587 4.04737L6.72509 3.69626L6.43395 3.47746C6.39627 3.44908 6.41567 3.38832 6.46254 3.38791L6.82446 3.3851L6.93894 3.03573C6.95377 2.99053 7.01664 2.99053 7.03146 3.03573Z" fill="#F5F5F5"/>
<path d="M7.03146 4.86324L7.14595 5.21262L7.50787 5.21543C7.55474 5.21584 7.57413 5.27666 7.53646 5.30498L7.24532 5.52379L7.35453 5.8749C7.36871 5.92033 7.3178 5.95801 7.27965 5.93023L6.98517 5.71607L6.69075 5.93023C6.65261 5.95795 6.60181 5.92033 6.61587 5.8749L6.72509 5.52379L6.43395 5.30498C6.39627 5.2766 6.41567 5.21584 6.46254 5.21543L6.82446 5.21262L6.93894 4.86324C6.95377 4.81805 7.01664 4.81805 7.03146 4.86324Z" fill="#F5F5F5"/>
<path d="M7.03146 6.69117L7.14595 7.04054L7.50787 7.04335C7.55474 7.04376 7.57413 7.10458 7.53646 7.1329L7.24532 7.35171L7.35453 7.70281C7.36871 7.74824 7.3178 7.78592 7.27965 7.75814L6.98517 7.54398L6.69075 7.75814C6.65261 7.78586 6.60181 7.74824 6.61587 7.70281L6.72509 7.35171L6.43395 7.1329C6.39627 7.10452 6.41567 7.04376 6.46254 7.04335L6.82446 7.04054L6.93894 6.69117C6.95377 6.64591 7.01664 6.64591 7.03146 6.69117Z" fill="#F5F5F5"/>
<path d="M7.03146 8.5186L7.14595 8.86798L7.50787 8.87078C7.55474 8.8712 7.57413 8.93202 7.53646 8.96034L7.24532 9.17915L7.35453 9.53025C7.36871 9.57569 7.3178 9.61337 7.27965 9.58558L6.98517 9.37142L6.69075 9.58558C6.65261 9.61331 6.60181 9.57569 6.61587 9.53025L6.72509 9.17915L6.43395 8.96034C6.39627 8.93196 6.41567 8.8712 6.46254 8.87078L6.82446 8.86798L6.93894 8.5186C6.95377 8.47329 7.01664 8.47329 7.03146 8.5186Z" fill="#F5F5F5"/>
<path d="M8.42594 2.10421L8.54042 2.45359L8.90234 2.45639C8.94922 2.4568 8.96861 2.51762 8.93093 2.54594L8.63979 2.76475L8.74901 3.11585C8.76319 3.16129 8.71227 3.19896 8.67413 3.17118L8.37971 2.95702L8.08528 3.17118C8.04714 3.19891 7.99634 3.16129 8.0104 3.11585L8.11962 2.76475L7.82848 2.54594C7.7908 2.51756 7.8102 2.4568 7.85707 2.45639L8.21899 2.45359L8.33348 2.10421C8.3483 2.05901 8.41111 2.05901 8.42594 2.10421Z" fill="#F5F5F5"/>
<path d="M8.42594 3.93189L8.54042 4.28126L8.90234 4.28407C8.94922 4.28448 8.96861 4.3453 8.93093 4.37362L8.63979 4.59242L8.74901 4.94353C8.76319 4.98896 8.71227 5.02664 8.67413 4.99885L8.37971 4.7847L8.08528 4.99885C8.04714 5.02658 7.99634 4.98902 8.0104 4.94353L8.11962 4.59242L7.82848 4.37362C7.7908 4.34524 7.8102 4.28448 7.85707 4.28407L8.21899 4.28126L8.33348 3.93189C8.3483 3.88664 8.41111 3.88664 8.42594 3.93189Z" fill="#F5F5F5"/>
<path d="M8.42594 5.75965L8.54042 6.10902L8.90234 6.11183C8.94922 6.11225 8.96861 6.17306 8.93093 6.20138L8.63979 6.42019L8.74901 6.77129C8.76319 6.81673 8.71227 6.85441 8.67413 6.82662L8.37971 6.61246L8.08528 6.82662C8.04714 6.85435 7.99634 6.81673 8.0104 6.77129L8.11962 6.42019L7.82848 6.20138C7.7908 6.173 7.8102 6.11225 7.85707 6.11183L8.21899 6.10902L8.33348 5.75965C8.3483 5.71439 8.41111 5.71439 8.42594 5.75965Z" fill="#F5F5F5"/>
<path d="M8.42594 7.58724L8.54042 7.93662L8.90234 7.93942C8.94922 7.93984 8.96861 8.00065 8.93093 8.02897L8.63979 8.24778L8.74901 8.59889C8.76319 8.64432 8.71227 8.682 8.67413 8.65421L8.37971 8.44006L8.08528 8.65421C8.04714 8.68194 7.99634 8.64432 8.0104 8.59889L8.11962 8.24778L7.82848 8.02897C7.7908 8.00059 7.8102 7.93984 7.85707 7.93942L8.21899 7.93662L8.33348 7.58724C8.3483 7.54205 8.41111 7.54205 8.42594 7.58724Z" fill="#F5F5F5"/>
<path d="M9.82047 1.20813L9.93495 1.55751L10.2969 1.56031C10.3437 1.56073 10.3631 1.62154 10.3255 1.64986L10.0343 1.86867L10.1435 2.21978C10.1577 2.26521 10.1068 2.30289 10.0687 2.2751L9.77424 2.06095L9.47982 2.2751C9.44167 2.30283 9.39087 2.26521 9.40494 2.21978L9.51415 1.86867L9.22301 1.64986C9.18533 1.62148 9.20473 1.56073 9.2516 1.56031L9.61352 1.55751L9.72801 1.20813C9.74272 1.16288 9.80564 1.16288 9.82047 1.20813Z" fill="#F5F5F5"/>
<path d="M9.82047 3.03573L9.93495 3.3851L10.2969 3.38791C10.3437 3.38832 10.3631 3.44914 10.3255 3.47746L10.0343 3.69626L10.1435 4.04737C10.1577 4.0928 10.1068 4.13048 10.0687 4.1027L9.77424 3.88854L9.47982 4.1027C9.44167 4.13042 9.39087 4.0928 9.40494 4.04737L9.51415 3.69626L9.22301 3.47746C9.18533 3.44908 9.20473 3.38832 9.2516 3.38791L9.61352 3.3851L9.72801 3.03573C9.74272 2.99053 9.80564 2.99053 9.82047 3.03573Z" fill="#F5F5F5"/>
<path d="M9.82047 4.86324L9.93495 5.21262L10.2969 5.21543C10.3437 5.21584 10.3631 5.27666 10.3255 5.30498L10.0343 5.52379L10.1435 5.8749C10.1577 5.92033 10.1068 5.95801 10.0687 5.93023L9.77424 5.71607L9.47982 5.93023C9.44167 5.95795 9.39087 5.92033 9.40494 5.8749L9.51415 5.52379L9.22301 5.30498C9.18533 5.2766 9.20473 5.21584 9.2516 5.21543L9.61352 5.21262L9.72801 4.86324C9.74272 4.81805 9.80564 4.81805 9.82047 4.86324Z" fill="#F5F5F5"/>
<path d="M9.82047 6.69117L9.93495 7.04054L10.2969 7.04335C10.3437 7.04376 10.3631 7.10458 10.3255 7.1329L10.0343 7.35171L10.1435 7.70281C10.1577 7.74824 10.1068 7.78592 10.0687 7.75814L9.77424 7.54398L9.47982 7.75814C9.44167 7.78586 9.39087 7.74824 9.40494 7.70281L9.51415 7.35171L9.22301 7.1329C9.18533 7.10452 9.20473 7.04376 9.2516 7.04335L9.61352 7.04054L9.72801 6.69117C9.74272 6.64591 9.80564 6.64591 9.82047 6.69117Z" fill="#F5F5F5"/>
<path d="M9.82047 8.5186L9.93495 8.86798L10.2969 8.87078C10.3437 8.8712 10.3631 8.93202 10.3255 8.96034L10.0343 9.17915L10.1435 9.53025C10.1577 9.57569 10.1068 9.61337 10.0687 9.58558L9.77424 9.37142L9.47982 9.58558C9.44167 9.61331 9.39087 9.57569 9.40494 9.53025L9.51415 9.17915L9.22301 8.96034C9.18533 8.93196 9.20473 8.8712 9.2516 8.87078L9.61352 8.86798L9.72801 8.5186C9.74272 8.47329 9.80564 8.47329 9.82047 8.5186Z" fill="#F5F5F5"/>
<path d="M11.2111 2.10421L11.3256 2.45359L11.6875 2.45639C11.7344 2.4568 11.7538 2.51762 11.7161 2.54594L11.4249 2.76475L11.5342 3.11585C11.5483 3.16129 11.4974 3.19896 11.4593 3.17118L11.1649 2.95702L10.8704 3.17118C10.8323 3.19891 10.7815 3.16129 10.7956 3.11585L10.9048 2.76475L10.6136 2.54594C10.576 2.51756 10.5954 2.4568 10.6422 2.45639L11.0041 2.45359L11.1186 2.10421C11.1334 2.05901 11.1963 2.05901 11.2111 2.10421Z" fill="#F5F5F5"/>
<path d="M11.2111 3.93189L11.3256 4.28126L11.6875 4.28407C11.7344 4.28448 11.7538 4.3453 11.7161 4.37362L11.4249 4.59242L11.5342 4.94353C11.5483 4.98896 11.4974 5.02664 11.4593 4.99885L11.1649 4.7847L10.8704 4.99885C10.8323 5.02658 10.7815 4.98902 10.7956 4.94353L10.9048 4.59242L10.6136 4.37362C10.576 4.34524 10.5954 4.28448 10.6422 4.28407L11.0041 4.28126L11.1186 3.93189C11.1334 3.88664 11.1963 3.88664 11.2111 3.93189Z" fill="#F5F5F5"/>
<path d="M11.2111 5.75965L11.3256 6.10902L11.6875 6.11183C11.7344 6.11225 11.7538 6.17306 11.7161 6.20138L11.4249 6.42019L11.5342 6.77129C11.5483 6.81673 11.4974 6.85441 11.4593 6.82662L11.1649 6.61246L10.8704 6.82662C10.8323 6.85435 10.7815 6.81673 10.7956 6.77129L10.9048 6.42019L10.6136 6.20138C10.576 6.173 10.5954 6.11225 10.6422 6.11183L11.0041 6.10902L11.1186 5.75965C11.1334 5.71439 11.1963 5.71439 11.2111 5.75965Z" fill="#F5F5F5"/>
<path d="M11.2111 7.58724L11.3256 7.93662L11.6875 7.93942C11.7344 7.93984 11.7538 8.00065 11.7161 8.02897L11.4249 8.24778L11.5342 8.59889C11.5483 8.64432 11.4974 8.682 11.4593 8.65421L11.1649 8.44006L10.8704 8.65421C10.8323 8.68194 10.7815 8.64432 10.7956 8.59889L10.9048 8.24778L10.6136 8.02897C10.576 8.00059 10.5954 7.93984 10.6422 7.93942L11.0041 7.93662L11.1186 7.58724C11.1334 7.54205 11.1963 7.54205 11.2111 7.58724Z" fill="#F5F5F5"/>
<path d="M12.6056 1.20813L12.7201 1.55751L13.082 1.56031C13.1289 1.56073 13.1483 1.62154 13.1106 1.64986L12.8195 1.86867L12.9287 2.21978C12.9429 2.26521 12.892 2.30289 12.8538 2.2751L12.5594 2.06095L12.265 2.2751C12.2268 2.30283 12.176 2.26521 12.1901 2.21978L12.2993 1.86867L12.0082 1.64986C11.9705 1.62148 11.9899 1.56073 12.0368 1.56031L12.3987 1.55751L12.5132 1.20813C12.5279 1.16288 12.5907 1.16288 12.6056 1.20813Z" fill="#F5F5F5"/>
<path d="M12.6056 3.03573L12.7201 3.3851L13.082 3.38791C13.1289 3.38832 13.1483 3.44914 13.1106 3.47746L12.8195 3.69626L12.9287 4.04737C12.9429 4.0928 12.892 4.13048 12.8538 4.1027L12.5594 3.88854L12.265 4.1027C12.2268 4.13042 12.176 4.0928 12.1901 4.04737L12.2993 3.69626L12.0082 3.47746C11.9705 3.44908 11.9899 3.38832 12.0368 3.38791L12.3987 3.3851L12.5132 3.03573C12.5279 2.99053 12.5907 2.99053 12.6056 3.03573Z" fill="#F5F5F5"/>
<path d="M12.6056 4.86324L12.7201 5.21262L13.082 5.21543C13.1289 5.21584 13.1483 5.27666 13.1106 5.30498L12.8195 5.52379L12.9287 5.8749C12.9429 5.92033 12.892 5.95801 12.8538 5.93023L12.5594 5.71607L12.265 5.93023C12.2268 5.95795 12.176 5.92033 12.1901 5.8749L12.2993 5.52379L12.0082 5.30498C11.9705 5.2766 11.9899 5.21584 12.0368 5.21543L12.3987 5.21262L12.5132 4.86324C12.5279 4.81805 12.5907 4.81805 12.6056 4.86324Z" fill="#F5F5F5"/>
<path d="M12.6056 6.69117L12.7201 7.04054L13.082 7.04335C13.1289 7.04376 13.1483 7.10458 13.1106 7.1329L12.8195 7.35171L12.9287 7.70281C12.9429 7.74824 12.892 7.78592 12.8538 7.75814L12.5594 7.54398L12.265 7.75814C12.2268 7.78586 12.176 7.74824 12.1901 7.70281L12.2993 7.35171L12.0082 7.1329C11.9705 7.10452 11.9899 7.04376 12.0368 7.04335L12.3987 7.04054L12.5132 6.69117C12.5279 6.64591 12.5907 6.64591 12.6056 6.69117Z" fill="#F5F5F5"/>
<path d="M12.6056 8.5186L12.7201 8.86798L13.082 8.87078C13.1289 8.8712 13.1483 8.93202 13.1106 8.96034L12.8195 9.17915L12.9287 9.53025C12.9429 9.57569 12.892 9.61337 12.8538 9.58558L12.5594 9.37142L12.265 9.58558C12.2268 9.61331 12.176 9.57569 12.1901 9.53025L12.2993 9.17915L12.0082 8.96034C11.9705 8.93196 11.9899 8.8712 12.0368 8.87078L12.3987 8.86798L12.5132 8.5186C12.5279 8.47329 12.5907 8.47329 12.6056 8.5186Z" fill="#F5F5F5"/>
</svg>
