<svg width="138" height="30" viewBox="0 0 138 30" fill="none" xmlns="http://www.w3.org/2000/svg">
<g clip-path="url(#clip0_1_5509)">
<path d="M12.7709 0C5.7522 0 0 5.70681 0 12.6702C0 15.8639 1.16099 18.7435 3.11358 20.9948C3.58853 20.8377 4.11625 20.733 4.64398 20.733C7.07151 20.733 9.02409 22.5654 9.28795 24.8691C10.3962 25.1832 11.5572 25.3403 12.7709 25.3403C19.8424 25.3403 25.5419 19.6335 25.5419 12.6702C25.5946 5.70681 19.8424 0 12.7709 0ZM12.7709 19.4241C9.02409 19.4241 6.01606 16.4398 6.01606 12.7225C6.01606 9.00524 9.02409 6.02094 12.7709 6.02094C16.5178 6.02094 19.5258 9.00524 19.5258 12.7225C19.5258 16.3874 16.5178 19.4241 12.7709 19.4241Z" fill="#1565C0"/>
<path d="M3.11358 20.9949C1.31931 21.6231 0 23.3509 0 25.3928C0 27.9582 2.1109 30.0001 4.64398 30.0001C7.22983 30.0001 9.28795 27.9059 9.28795 25.3928C9.28795 25.2357 9.28795 25.0786 9.28795 24.9216C6.86042 24.2409 4.74952 22.8273 3.11358 20.9949Z" fill="url(#paint0_linear_1_5509)"/>
<path d="M40.5813 19.5811V24.9738H36.1484V5.60205H44.5393C48.9721 5.60205 51.5052 8.69106 51.5052 12.4607C51.5052 16.4397 48.7611 19.5811 44.1699 19.5811H40.5813V19.5811ZM40.5813 9.63346V15.602H44.0643C45.9641 15.602 47.0723 14.3979 47.0723 12.6178C47.0723 10.8377 45.9641 9.68582 43.906 9.68582H40.5813V9.63346Z" fill="#272557"/>
<path d="M53.7734 25.0261V10.4711H57.7314V12.4607C58.734 11.1518 60.1589 10.2617 62.0059 10.2617V14.2408C59.0507 14.2408 57.7841 15.8638 57.7841 18.3769V25.0261H53.7734Z" fill="#272557"/>
<path d="M78.6285 17.8011C78.6285 21.9896 75.2511 25.3404 70.7654 25.3404C66.2798 25.3404 62.9023 22.0419 62.9023 17.8011C62.9023 13.5603 66.2798 10.2095 70.7654 10.2095C75.2511 10.2095 78.6285 13.5603 78.6285 17.8011ZM66.8075 17.8011C66.8075 20.1048 68.4434 21.8325 70.6599 21.8325C72.8763 21.8325 74.6706 20.1048 74.6706 17.8011C74.6706 15.4451 72.9819 13.7697 70.7127 13.7697C68.4435 13.7697 66.8075 15.4451 66.8075 17.8011Z" fill="#272557"/>
<path d="M84.4872 11.9372C85.226 11.0995 86.7036 10.2095 88.7618 10.2095C92.192 10.2095 94.4084 12.5655 94.4084 16.0733V24.9739H90.4505V16.754C90.4505 15.0262 89.5006 13.822 87.7591 13.822C85.8065 13.822 84.54 15.0262 84.54 17.0681V24.9739H80.582V10.4713H84.4872V11.9372Z" fill="#272557"/>
<path d="M105.12 24.5025C103.748 28.3768 102.007 29.9999 98.3654 29.9999H96.9406V26.4396H98.1543C99.4736 26.4396 100.318 25.7067 100.846 24.5548L95.4102 10.4187H99.9486L102.957 19.3716L105.912 10.4187H110.028L105.12 24.5025Z" fill="#272557"/>
<path d="M109.82 25.0261V20.9424H113.937V25.0261H109.82Z" fill="#272557"/>
<path d="M116.258 9.21462V5.60205H120.216V9.21462H116.258ZM116.258 25.0261V10.4712H120.216V24.9738H116.258V25.0261Z" fill="#272557"/>
<path d="M138 17.8011C138 21.9896 134.622 25.3404 130.137 25.3404C125.651 25.3404 122.273 22.0419 122.273 17.8011C122.273 13.5603 125.651 10.2095 130.137 10.2095C134.622 10.2095 138 13.5603 138 17.8011ZM126.179 17.8011C126.179 20.1048 127.815 21.8325 130.031 21.8325C132.247 21.8325 134.042 20.1048 134.042 17.8011C134.042 15.4451 132.353 13.7697 130.084 13.7697C127.815 13.7697 126.179 15.4451 126.179 17.8011Z" fill="#272557"/>
</g>
<defs>
<linearGradient id="paint0_linear_1_5509" x1="21.413" y1="5.00639" x2="2.94388" y2="27.8374" gradientUnits="userSpaceOnUse">
<stop stop-color="#2AFFA9"/>
<stop offset="1" stop-color="#03B8FD"/>
</linearGradient>
<clipPath id="clip0_1_5509">
<rect width="138" height="30" fill="white"/>
</clipPath>
</defs>
</svg>
