<svg width="20" height="20" viewBox="0 0 20 20" fill="none" xmlns="http://www.w3.org/2000/svg">
<path fill-rule="evenodd" clip-rule="evenodd" d="M10.0013 18.3333C14.6037 18.3333 18.3346 14.6023 18.3346 9.99996C18.3346 5.39759 14.6037 1.66663 10.0013 1.66663C5.39893 1.66663 1.66797 5.39759 1.66797 9.99996C1.66797 14.6023 5.39893 18.3333 10.0013 18.3333Z" stroke="black" stroke-width="1.8" stroke-linecap="round" stroke-linejoin="round"/>
<path fill-rule="evenodd" clip-rule="evenodd" d="M10 15C12.7614 15 15 12.7614 15 10C15 7.23858 12.7614 5 10 5C7.23858 5 5 7.23858 5 10C5 12.7614 7.23858 15 10 15Z" stroke="black" stroke-width="1.8" stroke-linecap="round" stroke-linejoin="round"/>
<path fill-rule="evenodd" clip-rule="evenodd" d="M9.9987 11.6667C10.9192 11.6667 11.6654 10.9205 11.6654 10C11.6654 9.07957 10.9192 8.33337 9.9987 8.33337C9.07822 8.33337 8.33203 9.07957 8.33203 10C8.33203 10.9205 9.07822 11.6667 9.9987 11.6667Z" stroke="black" stroke-width="1.8" stroke-linecap="round" stroke-linejoin="round"/>
</svg>
