<svg width="20" height="20" viewBox="0 0 20 20" fill="none" xmlns="http://www.w3.org/2000/svg">
<path fill-rule="evenodd" clip-rule="evenodd" d="M15.832 9.99996C15.832 9.49996 16.1654 9.16663 16.6654 9.16663C17.1654 9.16663 17.4987 9.49996 17.4987 9.99996V15.8333C17.4987 17.25 16.4154 18.3333 14.9987 18.3333H3.33203C1.91536 18.3333 0.832031 17.25 0.832031 15.8333V4.16663C0.832031 2.74996 1.91536 1.66663 3.33203 1.66663H12.4987C12.9987 1.66663 13.332 1.99996 13.332 2.49996C13.332 2.99996 12.9987 3.33329 12.4987 3.33329H3.33203C2.83203 3.33329 2.4987 3.66663 2.4987 4.16663V15.8333C2.4987 16.3333 2.83203 16.6666 3.33203 16.6666H14.9987C15.4987 16.6666 15.832 16.3333 15.832 15.8333V9.99996ZM9.7487 12.25L18.9154 3.08329C19.2487 2.74996 19.2487 2.24996 18.9154 1.91663C18.582 1.58329 18.082 1.58329 17.7487 1.91663L9.16536 10.5L7.2487 8.58329C6.91536 8.24996 6.41536 8.24996 6.08203 8.58329C5.7487 8.91663 5.7487 9.41663 6.08203 9.74996L8.58203 12.25C8.7487 12.4166 8.91536 12.5 9.16536 12.5C9.41536 12.5 9.58203 12.4166 9.7487 12.25Z" fill="black"/>
<mask id="mask0_10_1713" style="mask-type:luminance" maskUnits="userSpaceOnUse" x="0" y="1" width="20" height="18">
<path fill-rule="evenodd" clip-rule="evenodd" d="M15.832 9.99996C15.832 9.49996 16.1654 9.16663 16.6654 9.16663C17.1654 9.16663 17.4987 9.49996 17.4987 9.99996V15.8333C17.4987 17.25 16.4154 18.3333 14.9987 18.3333H3.33203C1.91536 18.3333 0.832031 17.25 0.832031 15.8333V4.16663C0.832031 2.74996 1.91536 1.66663 3.33203 1.66663H12.4987C12.9987 1.66663 13.332 1.99996 13.332 2.49996C13.332 2.99996 12.9987 3.33329 12.4987 3.33329H3.33203C2.83203 3.33329 2.4987 3.66663 2.4987 4.16663V15.8333C2.4987 16.3333 2.83203 16.6666 3.33203 16.6666H14.9987C15.4987 16.6666 15.832 16.3333 15.832 15.8333V9.99996ZM9.7487 12.25L18.9154 3.08329C19.2487 2.74996 19.2487 2.24996 18.9154 1.91663C18.582 1.58329 18.082 1.58329 17.7487 1.91663L9.16536 10.5L7.2487 8.58329C6.91536 8.24996 6.41536 8.24996 6.08203 8.58329C5.7487 8.91663 5.7487 9.41663 6.08203 9.74996L8.58203 12.25C8.7487 12.4166 8.91536 12.5 9.16536 12.5C9.41536 12.5 9.58203 12.4166 9.7487 12.25Z" fill="white"/>
</mask>
<g mask="url(#mask0_10_1713)">
</g>
</svg>
