<svg width="22" height="22" viewBox="0 0 22 22" fill="none" xmlns="http://www.w3.org/2000/svg">
<path fill-rule="evenodd" clip-rule="evenodd" d="M11 13.5C12.3807 13.5 13.5 12.3807 13.5 11C13.5 9.61929 12.3807 8.5 11 8.5C9.61929 8.5 8.5 9.61929 8.5 11C8.5 12.3807 9.61929 13.5 11 13.5Z" stroke="black" stroke-width="1.8" stroke-linecap="round" stroke-linejoin="round"/>
<path fill-rule="evenodd" clip-rule="evenodd" d="M17.1654 13.5C16.9384 14.0143 17.0473 14.6149 17.4404 15.0167L17.4904 15.0667C17.8033 15.3793 17.9792 15.8035 17.9792 16.2459C17.9792 16.6882 17.8033 17.1124 17.4904 17.425C17.1778 17.738 16.7535 17.9139 16.3112 17.9139C15.8688 17.9139 15.4446 17.738 15.132 17.425L15.082 17.375C14.6802 16.982 14.0796 16.8731 13.5654 17.1C13.0616 17.3159 12.7342 17.8103 12.732 18.3584V18.5C12.732 19.4205 11.9858 20.1667 11.0654 20.1667C10.1449 20.1667 9.3987 19.4205 9.3987 18.5V18.425C9.38549 17.8606 9.02859 17.3616 8.4987 17.1667C7.98446 16.9398 7.38385 17.0487 6.98203 17.4417L6.93203 17.4917C6.61942 17.8047 6.19521 17.9805 5.75286 17.9805C5.31052 17.9805 4.88631 17.8047 4.5737 17.4917C4.26074 17.1791 4.08489 16.7549 4.08489 16.3125C4.08489 15.8702 4.26074 15.446 4.5737 15.1334L4.6237 15.0834C5.01675 14.6816 5.12565 14.0809 4.8987 13.5667C4.68281 13.063 4.1884 12.7356 3.64036 12.7334H3.4987C2.57822 12.7334 1.83203 11.9872 1.83203 11.0667C1.83203 10.1462 2.57822 9.40004 3.4987 9.40004H3.5737C4.13814 9.38684 4.63714 9.02993 4.83203 8.50004C5.05899 7.9858 4.95009 7.3852 4.55703 6.98337L4.50703 6.93337C4.19407 6.62076 4.01822 6.19656 4.01822 5.75421C4.01822 5.31186 4.19407 4.88765 4.50703 4.57504C4.81964 4.26208 5.24385 4.08623 5.6862 4.08623C6.12855 4.08623 6.55275 4.26208 6.86536 4.57504L6.91536 4.62504C7.31719 5.0181 7.91779 5.127 8.43203 4.90004H8.4987C9.00242 4.68415 9.32984 4.18974 9.33203 3.64171V3.50004C9.33203 2.57957 10.0782 1.83337 10.9987 1.83337C11.9192 1.83337 12.6654 2.57957 12.6654 3.50004V3.57504C12.6675 4.12308 12.995 4.61748 13.4987 4.83337C14.0129 5.06033 14.6135 4.95143 15.0154 4.55837L15.0654 4.50837C15.378 4.19541 15.8022 4.01956 16.2445 4.01956C16.6869 4.01956 17.1111 4.19541 17.4237 4.50837C17.7367 4.82099 17.9125 5.24519 17.9125 5.68754C17.9125 6.12989 17.7367 6.55409 17.4237 6.86671L17.3737 6.91671C16.9806 7.31853 16.8717 7.91913 17.0987 8.43337V8.50004C17.3146 9.00377 17.809 9.33119 18.357 9.33337H18.4987C19.4192 9.33337 20.1654 10.0796 20.1654 11C20.1654 11.9205 19.4192 12.6667 18.4987 12.6667H18.4237C17.8757 12.6689 17.3813 12.9963 17.1654 13.5Z" stroke="black" stroke-width="1.8" stroke-linecap="round" stroke-linejoin="round"/>
</svg>
