<svg width="16" height="16" viewBox="0 0 16 16" fill="none" xmlns="http://www.w3.org/2000/svg">
<g clip-path="url(#clip0_1_2798)">
<path d="M0.666016 14H3.33268V6.00002H0.666016V14ZM15.3327 6.66669C15.3327 5.93002 14.736 5.33335 13.9993 5.33335H9.78935L10.426 2.28669C10.4393 2.22002 10.4493 2.15002 10.4493 2.07669C10.4493 1.80002 10.336 1.55002 10.156 1.37002L9.44602 0.666687L5.05602 5.05669C4.81602 5.30002 4.66602 5.63335 4.66602 6.00002V12.6667C4.66602 13.4034 5.26268 14 5.99935 14H11.9993C12.5527 14 13.026 13.6634 13.226 13.1867L15.236 8.48669C15.296 8.33335 15.3327 8.17002 15.3327 8.00002V6.72335L15.326 6.71669L15.3327 6.66669Z" fill="#E0E0E0"/>
</g>
<defs>
<clipPath id="clip0_1_2798">
<rect width="16" height="16" fill="white"/>
</clipPath>
</defs>
</svg>
