<svg width="16" height="17" viewBox="0 0 16 17" fill="none" xmlns="http://www.w3.org/2000/svg">
<g clip-path="url(#clip0_1_2819)">
<path d="M7.99935 11.8334C8.73602 11.8334 9.33268 11.2367 9.33268 10.5C9.33268 9.76335 8.73602 9.16669 7.99935 9.16669C7.26268 9.16669 6.66602 9.76335 6.66602 10.5C6.66602 11.2367 7.26268 11.8334 7.99935 11.8334ZM11.9993 5.83335H11.3327V4.50002C11.3327 2.66002 9.83935 1.16669 7.99935 1.16669C6.15935 1.16669 4.66602 2.66002 4.66602 4.50002H5.93268C5.93268 3.36002 6.85935 2.43335 7.99935 2.43335C9.13935 2.43335 10.066 3.36002 10.066 4.50002V5.83335H3.99935C3.26268 5.83335 2.66602 6.43002 2.66602 7.16669V13.8334C2.66602 14.57 3.26268 15.1667 3.99935 15.1667H11.9993C12.736 15.1667 13.3327 14.57 13.3327 13.8334V7.16669C13.3327 6.43002 12.736 5.83335 11.9993 5.83335ZM11.9993 13.8334H3.99935V7.16669H11.9993V13.8334Z" fill="#E0E0E0"/>
</g>
<defs>
<clipPath id="clip0_1_2819">
<rect width="16" height="16" fill="white" transform="translate(0 0.5)"/>
</clipPath>
</defs>
</svg>
