<svg width="45" height="45" viewBox="0 0 45 45" fill="none" xmlns="http://www.w3.org/2000/svg">
<path d="M45 22.5C45 34.9264 34.9264 45 22.5 45C10.0736 45 0 34.9264 0 22.5C0 10.0736 10.0736 0 22.5 0C34.9264 0 45 10.0736 45 22.5Z" fill="#1565C0"/>
<path d="M27.01 16.9299C27.2593 16.9299 27.4577 17.0149 27.605 17.1849C27.7637 17.3436 27.843 17.5533 27.843 17.8139V28.2009C27.843 28.4616 27.7637 28.6769 27.605 28.8469C27.4463 29.0056 27.2423 29.0849 26.993 29.0849C26.6983 29.0849 26.4717 28.9716 26.313 28.7449L19.649 19.9559V28.2009C19.649 28.4616 19.5697 28.6769 19.411 28.8469C19.2637 29.0056 19.0653 29.0849 18.816 29.0849C18.5667 29.0849 18.3683 29.0056 18.221 28.8469C18.0737 28.6883 18 28.4729 18 28.2009V17.8139C18 17.5533 18.0793 17.3436 18.238 17.1849C18.3967 17.0149 18.6007 16.9299 18.85 16.9299C19.1447 16.9299 19.3713 17.0433 19.53 17.2699L26.194 26.0759V17.8139C26.194 17.5533 26.2677 17.3436 26.415 17.1849C26.5623 17.0149 26.7607 16.9299 27.01 16.9299Z" fill="white"/>
</svg>
