<svg width="16" height="16" viewBox="0 0 16 16" fill="none" xmlns="http://www.w3.org/2000/svg">
<g clip-path="url(#clip0_1_2709)">
<path d="M0.666016 14H3.33268V5.99996H0.666016V14ZM15.3327 6.66663C15.3327 5.92996 14.736 5.33329 13.9993 5.33329H9.78935L10.426 2.28663C10.4393 2.21996 10.4493 2.14996 10.4493 2.07663C10.4493 1.79996 10.336 1.54996 10.156 1.36996L9.44602 0.666626L5.05602 5.05663C4.81602 5.29996 4.66602 5.63329 4.66602 5.99996V12.6666C4.66602 13.4033 5.26268 14 5.99935 14H11.9993C12.5527 14 13.026 13.6633 13.226 13.1866L15.236 8.48663C15.296 8.33329 15.3327 8.16996 15.3327 7.99996V6.72329L15.326 6.71663L15.3327 6.66663Z" fill="#E0E0E0"/>
</g>
<defs>
<clipPath id="clip0_1_2709">
<rect width="16" height="16" fill="white"/>
</clipPath>
</defs>
</svg>
