<svg width="20" height="20" viewBox="0 0 20 20" fill="none" xmlns="http://www.w3.org/2000/svg">
<g clip-path="url(#clip0_1_3726)">
<path d="M15.8335 6.66671L12.5002 10H15.0002C15.0002 12.7625 12.7627 15 10.0002 15C9.15433 15 8.36266 14.7875 7.66266 14.4209L6.446 15.6375C7.47933 16.2834 8.69183 16.6667 10.0002 16.6667C13.6835 16.6667 16.6668 13.6834 16.6668 10H19.1668L15.8335 6.66671ZM5.00016 10C5.00016 7.23754 7.23766 5.00004 10.0002 5.00004C10.846 5.00004 11.6377 5.21254 12.3377 5.57921L13.5543 4.36254C12.521 3.71671 11.3085 3.33337 10.0002 3.33337C6.31683 3.33337 3.3335 6.31671 3.3335 10H0.833496L4.16683 13.3334L7.50016 10H5.00016Z" fill="#E0E0E0"/>
</g>
<defs>
<clipPath id="clip0_1_3726">
<rect width="20" height="20" fill="white"/>
</clipPath>
</defs>
</svg>
