<svg width="16" height="16" viewBox="0 0 16 16" fill="none" xmlns="http://www.w3.org/2000/svg">
<g clip-path="url(#clip0_1_1591)">
<path d="M0.666504 14H3.33317V5.99996H0.666504V14ZM15.3332 6.66663C15.3332 5.92996 14.7365 5.33329 13.9998 5.33329H9.78984L10.4265 2.28663C10.4398 2.21996 10.4498 2.14996 10.4498 2.07663C10.4498 1.79996 10.3365 1.54996 10.1565 1.36996L9.4465 0.666626L5.0565 5.05663C4.8165 5.29996 4.6665 5.63329 4.6665 5.99996V12.6666C4.6665 13.4033 5.26317 14 5.99984 14H11.9998C12.5532 14 13.0265 13.6633 13.2265 13.1866L15.2365 8.48663C15.2965 8.33329 15.3332 8.16996 15.3332 7.99996V6.72329L15.3265 6.71663L15.3332 6.66663Z" fill="#E0E0E0"/>
</g>
<defs>
<clipPath id="clip0_1_1591">
<rect width="16" height="16" fill="white"/>
</clipPath>
</defs>
</svg>
